<svg width="106" height="33" viewBox="0 0 106 33" fill="none" xmlns="http://www.w3.org/2000/svg">
<path d="M9.16697 0H4.93183C1.64394 0 0 1.64393 0 4.93178V15.9436C0 19.2315 1.64394 20.8754 4.93183 20.8754H9.16697C12.4549 20.8754 14.0988 19.2315 14.0988 15.9436V4.93178C14.0988 1.64393 12.4549 0 9.16697 0ZM5.0227 3.35945H8.91639L3.72296 14.3961V4.65917C3.72296 3.79177 4.15529 3.35945 5.0227 3.35945ZM9.0761 17.5187H5.29531L10.3758 6.7189V16.2162C10.3758 17.0836 9.94075 17.5159 9.0761 17.5159V17.5187Z" fill="url(#paint0_linear_1_419)"/>
<path d="M36.411 14.631L40.1632 11.7424V32.6178H36.411V19.3362L32.7779 22.1354L29.7404 24.488L26.6731 22.1354L23.04 19.3362V32.6178H19.3176V11.7424L23.04 14.631L29.7404 19.7829L36.411 14.631Z" fill="white"/>
<path fill-rule="evenodd" clip-rule="evenodd" d="M65.3101 32.6178L63.4042 28.8656L54.6788 11.7424L52.5948 15.8323L56.0449 22.6312L59.2351 28.8656L61.1409 32.6178H65.3101ZM53.9523 21.3907L50.1523 28.8656L48.2465 32.6178H44.0773L45.9534 28.8656L51.8617 17.2709L53.9523 21.3907Z" fill="white"/>
<path fill-rule="evenodd" clip-rule="evenodd" d="M88.937 11.8019V11.7425L88.9073 11.8019H84.2156L78.5439 19.1365L78.5403 19.1319L76.223 22.1594L76.2277 22.1654L75.1541 23.5559L73.4112 25.833L73.4016 25.8257L68.1804 32.5882V32.6179H72.8425L78.5439 25.1942L84.2749 32.6179H88.937L80.8898 22.1654L88.9073 11.8019H88.937ZM75.3971 21.0918L77.7167 18.0612L72.9019 11.8019H68.2101L68.1804 11.7425V11.8019H68.2101L75.3971 21.0918Z" fill="white"/>
<path d="M93.1121 20.8726V17.5136H97.9523V3.35625H93.9903V1.39041L95.7745 0H101.644V17.5164H106V20.8754H93.1148L93.1121 20.8726Z" fill="url(#paint1_linear_1_419)"/>
<defs>
<linearGradient id="paint0_linear_1_419" x1="7.0494" y1="0" x2="7.0494" y2="20.8781" gradientUnits="userSpaceOnUse">
<stop stop-color="#01F663"/>
<stop offset="1" stop-color="#00E4FE"/>
</linearGradient>
<linearGradient id="paint1_linear_1_419" x1="99.556" y1="0" x2="99.556" y2="20.8781" gradientUnits="userSpaceOnUse">
<stop stop-color="#01F663"/>
<stop offset="1" stop-color="#00E4FE"/>
</linearGradient>
</defs>
</svg>
